<svg width="18" height="18" viewBox="0 0 18 18" fill="none" xmlns="http://www.w3.org/2000/svg">
<g id="share" clip-path="url(#clip0_7001_11392)">
<path id="Vector 52 (Stroke)" fill-rule="evenodd" clip-rule="evenodd" d="M7.3951 10.545C7.1315 10.2813 7.1315 9.85396 7.3951 9.59036L13.8296 3.02012H10.368C9.99525 3.02012 9.69304 2.71792 9.69304 2.34512C9.69304 1.97233 9.99525 1.67012 10.368 1.67012H15.4592C15.832 1.67012 16.1342 1.97233 16.1342 2.34512L16.1342 7.43629C16.1342 7.80909 15.832 8.11129 15.4592 8.11129C15.0864 8.11129 14.7842 7.80908 14.7842 7.43629L14.7842 3.97472L8.3497 10.545C8.0861 10.8086 7.65871 10.8086 7.3951 10.545Z" fill="#9FA6B2"/>
<path id="Rectangle 192 (Stroke)" fill-rule="evenodd" clip-rule="evenodd" d="M4.4999 4.27505C3.87858 4.27505 3.3749 4.77873 3.3749 5.40005V13.5C3.3749 14.1214 3.87858 14.625 4.4999 14.625H12.5999C13.2212 14.625 13.7249 14.1214 13.7249 13.5V10.35C13.7249 9.97726 14.0271 9.67505 14.3999 9.67505C14.7727 9.67505 15.0749 9.97726 15.0749 10.35V13.5C15.0749 14.867 13.9668 15.975 12.5999 15.975H4.4999C3.133 15.975 2.0249 14.867 2.0249 13.5V5.40005C2.0249 4.03314 3.133 2.92505 4.4999 2.92505H7.6499C8.02269 2.92505 8.3249 3.22726 8.3249 3.60005C8.3249 3.97284 8.02269 4.27505 7.6499 4.27505H4.4999Z" fill="#9FA6B2"/>
</g>
<defs>
<clipPath id="clip0_7001_11392">
<rect width="18" height="18" fill="white"/>
</clipPath>
</defs>
</svg>
