<svg width="18" height="18" viewBox="0 0 18 18" fill="none" xmlns="http://www.w3.org/2000/svg">
<g id="pen">
<path id="Stroke 1 (Stroke)" fill-rule="evenodd" clip-rule="evenodd" d="M12.3788 1.9083C12.8196 1.46742 13.5333 1.46742 13.9742 1.9083L16.6718 4.60595C17.1127 5.04683 17.1127 5.7605 16.6718 6.20139L7.67596 15.1973C7.59335 15.2799 7.48616 15.3335 7.37049 15.35L3.25285 15.9382C3.08459 15.9623 2.91483 15.9057 2.79464 15.7855C2.67446 15.6653 2.61787 15.4956 2.64191 15.3273L3.23014 11.2097C3.24667 11.094 3.30026 10.9868 3.38288 10.9042L12.3788 1.9083ZM13.2105 2.67197C13.1914 2.65286 13.1616 2.65286 13.1424 2.67197L4.27383 11.5406L3.81288 14.7673L7.03957 14.3063L15.9082 5.43771C15.9273 5.41859 15.9273 5.38874 15.9082 5.36962L13.2105 2.67197Z" fill="#9FA6B2"/>
<path id="Stroke 3 (Stroke)" fill-rule="evenodd" clip-rule="evenodd" d="M15.3229 3.25704C15.5338 3.46792 15.5338 3.80983 15.3229 4.02071L8.26412 11.0795C8.05324 11.2904 7.71133 11.2904 7.50045 11.0795C7.28956 10.8687 7.28956 10.5267 7.50045 10.3159L14.5593 3.25704C14.7702 3.04616 15.1121 3.04616 15.3229 3.25704Z" fill="#9FA6B2"/>
<path id="Stroke 5 (Stroke)" fill-rule="evenodd" clip-rule="evenodd" d="M3.38302 10.9043C3.5939 10.6934 3.93581 10.6934 4.14669 10.9043L7.6761 14.4337C7.88699 14.6446 7.88699 14.9865 7.6761 15.1973C7.46522 15.4082 7.12331 15.4082 6.91243 15.1973L3.38302 11.6679C3.17213 11.457 3.17213 11.1151 3.38302 10.9043Z" fill="#9FA6B2"/>
</g>
</svg>
